<svg width="18" height="19" viewBox="0 0 18 19" fill="none" xmlns="http://www.w3.org/2000/svg">
<path d="M9.00404 4.66115C6.44868 4.66115 4.38752 6.72085 4.38752 9.27439C4.38752 11.8279 6.44868 13.8876 9.00404 13.8876C11.5594 13.8876 13.6206 11.8279 13.6206 9.27439C13.6206 6.72085 11.5594 4.66115 9.00404 4.66115ZM9.00404 12.2736C7.3527 12.2736 6.0027 10.9286 6.0027 9.27439C6.0027 7.62021 7.34868 6.27518 9.00404 6.27518C10.6594 6.27518 12.0054 7.62021 12.0054 9.27439C12.0054 10.9286 10.6554 12.2736 9.00404 12.2736ZM14.8862 4.47245C14.8862 5.07068 14.404 5.54847 13.8094 5.54847C13.2107 5.54847 12.7326 5.06667 12.7326 4.47245C12.7326 3.87823 13.2148 3.39642 13.8094 3.39642C14.404 3.39642 14.8862 3.87823 14.8862 4.47245ZM17.9438 5.56453C17.8755 4.12314 17.546 2.84637 16.4893 1.79444C15.4366 0.742508 14.1589 0.413277 12.7165 0.341007C11.2299 0.256692 6.77413 0.256692 5.28752 0.341007C3.84913 0.409262 2.57145 0.738493 1.51475 1.79042C0.458058 2.84235 0.132612 4.11913 0.0602905 5.56051C-0.0240845 7.04606 -0.0240845 11.4987 0.0602905 12.9843C0.128594 14.4256 0.458058 15.7024 1.51475 16.7543C2.57145 17.8063 3.84511 18.1355 5.28752 18.2078C6.77413 18.2921 11.2299 18.2921 12.7165 18.2078C14.1589 18.1395 15.4366 17.8103 16.4893 16.7543C17.542 15.7024 17.8715 14.4256 17.9438 12.9843C18.0281 11.4987 18.0281 7.05008 17.9438 5.56453ZM16.0232 14.5782C15.7098 15.3652 15.1031 15.9714 14.3116 16.2886C13.1264 16.7584 10.3139 16.65 9.00404 16.65C7.69422 16.65 4.8777 16.7543 3.69645 16.2886C2.90895 15.9754 2.30225 15.3692 1.98484 14.5782C1.51475 13.3938 1.62324 10.5833 1.62324 9.27439C1.62324 7.9655 1.51877 5.15098 1.98484 3.97057C2.29824 3.18363 2.90493 2.57736 3.69645 2.26018C4.88172 1.79042 7.69422 1.89883 9.00404 1.89883C10.3139 1.89883 13.1304 1.79444 14.3116 2.26018C15.0991 2.57335 15.7058 3.17961 16.0232 3.97057C16.4933 5.155 16.3848 7.9655 16.3848 9.27439C16.3848 10.5833 16.4933 13.3978 16.0232 14.5782Z" fill="white"/>
</svg>
