<svg width="18" height="10" viewBox="0 0 18 10" fill="none" xmlns="http://www.w3.org/2000/svg">
<path d="M17.0313 0.678125C17.1469 0.2875 17.0313 0 16.475 0H14.6344C14.1657 0 13.95 0.246875 13.8344 0.521875C13.8344 0.521875 12.8969 2.80625 11.5719 4.2875C11.1438 4.71562 10.9469 4.85313 10.7125 4.85313C10.5969 4.85313 10.4188 4.71562 10.4188 4.325V0.678125C10.4188 0.209375 10.2875 0 9.90005 0H7.0063C6.71255 0 6.53755 0.21875 6.53755 0.421875C6.53755 0.865625 7.20005 0.96875 7.2688 2.21875V4.93125C7.2688 5.525 7.16255 5.63437 6.92817 5.63437C6.30317 5.63437 4.78442 3.34063 3.88442 0.715625C3.70317 0.20625 3.52505 0 3.05317 0H1.21255C0.687549 0 0.581299 0.246875 0.581299 0.521875C0.581299 1.00937 1.2063 3.43125 3.49067 6.63125C5.01255 8.81563 7.1563 10 9.1063 10C10.2782 10 10.4219 9.7375 10.4219 9.28438C10.4219 7.19688 10.3157 7 10.9032 7C11.175 7 11.6438 7.1375 12.7375 8.19063C13.9875 9.44063 14.1938 10 14.8938 10H16.7344C17.2594 10 17.525 9.7375 17.3719 9.21875C17.0219 8.12813 14.6563 5.88438 14.55 5.73438C14.2782 5.38438 14.3563 5.22813 14.55 4.91563C14.5532 4.9125 16.8 1.75 17.0313 0.678125Z" fill="white"/>
</svg>
